<svg width="1146" height="363" viewBox="0 0 1146 363" fill="none" xmlns="http://www.w3.org/2000/svg">
<g clip-path="url(#clip0_4_3)">
<path d="M331.19 344.058H326.86V313.728H331.19V344.058ZM348.99 330.538H330.75V326.768H348.99V330.538ZM348.61 313.728H352.94V344.058H348.61V313.728Z" fill="#FF445D"/>
<path d="M378.2 344.318C375.89 344.318 373.84 343.808 372.05 342.808C370.26 341.798 368.84 340.398 367.8 338.628C366.76 336.848 366.24 334.838 366.24 332.588C366.24 330.308 366.76 328.278 367.8 326.518C368.84 324.758 370.26 323.378 372.05 322.378C373.84 321.378 375.89 320.888 378.2 320.888C380.48 320.888 382.53 321.388 384.33 322.378C386.14 323.378 387.55 324.748 388.58 326.498C389.6 328.248 390.12 330.278 390.12 332.588C390.12 334.868 389.61 336.888 388.58 338.648C387.55 340.408 386.14 341.798 384.33 342.808C382.53 343.808 380.48 344.318 378.2 344.318ZM378.2 340.678C379.67 340.678 381 340.348 382.17 339.678C383.34 339.018 384.26 338.068 384.92 336.838C385.58 335.608 385.92 334.188 385.92 332.568C385.92 330.918 385.59 329.498 384.92 328.298C384.25 327.098 383.34 326.168 382.17 325.508C381 324.838 379.68 324.508 378.2 324.508C376.73 324.508 375.41 324.838 374.26 325.508C373.1 326.168 372.18 327.108 371.49 328.298C370.8 329.498 370.45 330.918 370.45 332.568C370.45 334.188 370.8 335.608 371.49 336.838C372.18 338.068 373.11 339.018 374.26 339.678C375.41 340.348 376.73 340.678 378.2 340.678Z" fill="#FF445D"/>
<path d="M431.54 320.878C433.39 320.878 435.02 321.238 436.44 321.958C437.86 322.678 438.96 323.778 439.76 325.248C440.55 326.728 440.95 328.588 440.95 330.838V344.058H436.79V331.318C436.79 329.098 436.27 327.418 435.23 326.288C434.19 325.158 432.73 324.598 430.85 324.598C429.46 324.598 428.25 324.888 427.21 325.468C426.17 326.048 425.37 326.898 424.81 328.028C424.25 329.148 423.96 330.558 423.96 332.228V344.058H419.8V331.318C419.8 329.098 419.29 327.418 418.26 326.288C417.23 325.158 415.77 324.598 413.86 324.598C412.5 324.598 411.3 324.888 410.26 325.468C409.22 326.048 408.41 326.898 407.83 328.028C407.25 329.148 406.96 330.558 406.96 332.228V344.058H402.8V321.088H406.79V327.198L406.14 325.638C406.86 324.138 407.97 322.968 409.48 322.128C410.98 321.288 412.73 320.868 414.72 320.868C416.92 320.868 418.81 321.408 420.4 322.488C421.99 323.568 423.03 325.208 423.52 327.408L421.83 326.718C422.52 324.958 423.74 323.538 425.47 322.468C427.21 321.408 429.23 320.878 431.54 320.878Z" fill="#FF445D"/>
<path d="M465.77 344.318C463.31 344.318 461.15 343.808 459.29 342.808C457.43 341.798 455.98 340.408 454.96 338.648C453.93 336.888 453.42 334.868 453.42 332.588C453.42 330.308 453.92 328.278 454.92 326.518C455.92 324.758 457.29 323.378 459.04 322.378C460.79 321.378 462.76 320.888 464.96 320.888C467.18 320.888 469.15 321.378 470.85 322.358C472.55 323.338 473.89 324.718 474.86 326.498C475.83 328.278 476.31 330.348 476.31 332.718C476.31 332.888 476.3 333.098 476.29 333.328C476.27 333.558 476.25 333.778 476.22 333.978H456.68V330.988H474.06L472.37 332.028C472.4 330.558 472.09 329.238 471.46 328.088C470.82 326.928 469.95 326.028 468.84 325.378C467.73 324.728 466.44 324.408 464.96 324.408C463.51 324.408 462.23 324.728 461.1 325.378C459.97 326.028 459.09 326.938 458.46 328.108C457.82 329.278 457.51 330.618 457.51 332.118V332.808C457.51 334.338 457.86 335.708 458.57 336.908C459.28 338.108 460.27 339.038 461.54 339.698C462.81 340.368 464.27 340.698 465.92 340.698C467.28 340.698 468.51 340.468 469.62 340.008C470.73 339.548 471.71 338.848 472.54 337.928L474.84 340.618C473.8 341.828 472.51 342.758 470.96 343.388C469.41 343.998 467.68 344.318 465.77 344.318Z" fill="#FF445D"/>
<path d="M495.59 344.318C493.68 344.318 491.87 344.058 490.15 343.538C488.43 343.018 487.08 342.378 486.1 341.628L487.83 338.338C488.81 338.998 490.02 339.568 491.47 340.028C492.91 340.488 494.39 340.718 495.89 340.718C497.82 340.718 499.22 340.438 500.07 339.898C500.92 339.348 501.35 338.578 501.35 337.598C501.35 336.878 501.09 336.308 500.57 335.908C500.05 335.498 499.36 335.198 498.51 334.998C497.66 334.798 496.71 334.618 495.67 334.458C494.63 334.298 493.59 334.098 492.55 333.848C491.51 333.608 490.56 333.258 489.69 332.808C488.82 332.358 488.13 331.738 487.61 330.948C487.09 330.158 486.83 329.088 486.83 327.758C486.83 326.368 487.22 325.158 488 324.118C488.78 323.078 489.88 322.278 491.31 321.708C492.74 321.148 494.44 320.868 496.4 320.868C497.9 320.868 499.43 321.048 500.97 321.408C502.52 321.768 503.78 322.288 504.76 322.948L502.98 326.238C501.94 325.548 500.86 325.068 499.73 324.808C498.6 324.548 497.48 324.418 496.35 324.418C494.53 324.418 493.17 324.718 492.28 325.308C491.38 325.898 490.94 326.658 490.94 327.578C490.94 328.358 491.21 328.958 491.74 329.378C492.27 329.798 492.97 330.118 493.82 330.348C494.67 330.578 495.62 330.778 496.66 330.938C497.7 331.098 498.74 331.298 499.78 331.548C500.82 331.798 501.77 332.128 502.62 332.568C503.47 332.998 504.17 333.608 504.7 334.388C505.23 335.168 505.5 336.208 505.5 337.508C505.5 338.898 505.1 340.098 504.29 341.108C503.48 342.118 502.34 342.908 500.87 343.468C499.4 344.038 497.64 344.318 495.59 344.318Z" fill="#FF445D"/>
<path d="M527.65 344.318C525.31 344.318 523.22 343.808 521.39 342.808C519.56 341.798 518.12 340.408 517.08 338.648C516.04 336.888 515.52 334.868 515.52 332.588C515.52 330.308 516.04 328.278 517.08 326.518C518.12 324.758 519.56 323.378 521.39 322.378C523.22 321.378 525.31 320.888 527.65 320.888C529.73 320.888 531.59 321.298 533.22 322.118C534.85 322.938 536.12 324.158 537.01 325.778L533.85 327.818C533.1 326.688 532.18 325.858 531.1 325.328C530.02 324.798 528.85 324.528 527.61 324.528C526.11 324.528 524.76 324.858 523.58 325.528C522.4 326.188 521.46 327.128 520.76 328.318C520.07 329.518 519.72 330.938 519.72 332.588C519.72 334.238 520.07 335.658 520.76 336.878C521.45 338.088 522.39 339.028 523.58 339.698C524.76 340.368 526.11 340.698 527.61 340.698C528.85 340.698 530.01 340.438 531.1 339.898C532.19 339.368 533.1 338.528 533.85 337.408L537.01 339.398C536.12 340.988 534.85 342.208 533.22 343.058C531.59 343.888 529.73 344.318 527.65 344.318Z" fill="#FF445D"/>
<path d="M561.28 320.878C563.16 320.878 564.81 321.238 566.24 321.958C567.67 322.678 568.79 323.778 569.6 325.248C570.41 326.728 570.81 328.588 570.81 330.838V344.058H566.65V331.318C566.65 329.098 566.11 327.418 565.03 326.288C563.95 325.158 562.42 324.598 560.46 324.598C558.99 324.598 557.7 324.888 556.6 325.468C555.5 326.048 554.66 326.898 554.06 328.028C553.47 329.148 553.17 330.558 553.17 332.228V344.058H549.01V311.898H553.17V327.278L552.34 325.628C553.09 324.128 554.25 322.958 555.81 322.118C557.38 321.288 559.2 320.878 561.28 320.878Z" fill="#FF445D"/>
<path d="M595.3 344.318C592.99 344.318 590.94 343.808 589.15 342.808C587.36 341.798 585.94 340.398 584.9 338.628C583.86 336.848 583.34 334.838 583.34 332.588C583.34 330.308 583.86 328.278 584.9 326.518C585.94 324.758 587.35 323.378 589.15 322.378C590.94 321.378 592.99 320.888 595.3 320.888C597.58 320.888 599.62 321.388 601.43 322.378C603.24 323.368 604.65 324.748 605.68 326.498C606.71 328.248 607.22 330.278 607.22 332.588C607.22 334.868 606.71 336.888 605.68 338.648C604.66 340.408 603.24 341.798 601.43 342.808C599.62 343.808 597.58 344.318 595.3 344.318ZM595.3 340.678C596.77 340.678 598.09 340.348 599.26 339.678C600.43 339.018 601.35 338.068 602.01 336.838C602.68 335.608 603.01 334.188 603.01 332.568C603.01 330.918 602.68 329.498 602.01 328.298C601.35 327.098 600.43 326.168 599.26 325.508C598.09 324.838 596.77 324.508 595.3 324.508C593.83 324.508 592.51 324.838 591.36 325.508C590.2 326.168 589.28 327.108 588.59 328.298C587.9 329.498 587.55 330.918 587.55 332.568C587.55 334.188 587.9 335.608 588.59 336.838C589.28 338.068 590.21 339.018 591.36 339.678C592.51 340.348 593.82 340.678 595.3 340.678Z" fill="#FF445D"/>
<path d="M629.75 344.318C627.44 344.318 625.39 343.808 623.6 342.808C621.81 341.798 620.39 340.398 619.35 338.628C618.31 336.848 617.79 334.838 617.79 332.588C617.79 330.308 618.31 328.278 619.35 326.518C620.39 324.758 621.8 323.378 623.6 322.378C625.39 321.378 627.44 320.888 629.75 320.888C632.03 320.888 634.07 321.388 635.88 322.378C637.69 323.368 639.1 324.748 640.13 326.498C641.16 328.248 641.67 330.278 641.67 332.588C641.67 334.868 641.16 336.888 640.13 338.648C639.11 340.408 637.69 341.798 635.88 342.808C634.07 343.808 632.03 344.318 629.75 344.318ZM629.75 340.678C631.22 340.678 632.54 340.348 633.71 339.678C634.88 339.018 635.8 338.068 636.46 336.838C637.13 335.608 637.46 334.188 637.46 332.568C637.46 330.918 637.13 329.498 636.46 328.298C635.8 327.098 634.88 326.168 633.71 325.508C632.54 324.838 631.22 324.508 629.75 324.508C628.28 324.508 626.96 324.838 625.81 325.508C624.65 326.168 623.73 327.108 623.04 328.298C622.35 329.498 622 330.918 622 332.568C622 334.188 622.35 335.608 623.04 336.838C623.73 338.068 624.66 339.018 625.81 339.678C626.96 340.348 628.27 340.678 629.75 340.678Z" fill="#FF445D"/>
<path d="M654.36 344.058V311.898H658.52V344.048H654.36V344.058Z" fill="#FF445D"/>
<path d="M675.46 316.668C674.65 316.668 673.98 316.408 673.44 315.888C672.91 315.368 672.64 314.728 672.64 313.978C672.64 313.198 672.91 312.548 673.44 312.028C673.97 311.508 674.65 311.248 675.46 311.248C676.27 311.248 676.94 311.498 677.48 312.008C678.01 312.518 678.28 313.138 678.28 313.898C678.28 314.678 678.02 315.338 677.5 315.868C676.98 316.398 676.3 316.668 675.46 316.668ZM673.38 344.058V321.088H677.54V344.058H673.38Z" fill="#FF445D"/>
<path d="M704.67 320.878C706.55 320.878 708.2 321.238 709.63 321.958C711.06 322.678 712.18 323.778 712.99 325.248C713.8 326.728 714.2 328.588 714.2 330.838V344.058H710.04V331.318C710.04 329.098 709.5 327.418 708.42 326.288C707.33 325.158 705.81 324.598 703.85 324.598C702.38 324.598 701.09 324.888 699.99 325.468C698.89 326.048 698.05 326.898 697.46 328.028C696.87 329.148 696.57 330.558 696.57 332.228V344.058H692.41V321.088H696.4V327.288L695.75 325.638C696.5 324.138 697.66 322.968 699.21 322.128C700.77 321.288 702.59 320.878 704.67 320.878Z" fill="#FF445D"/>
<path d="M738.38 343.098C736.15 343.098 734.17 342.628 732.42 341.688C730.67 340.748 729.28 339.438 728.26 337.768C727.24 336.098 726.72 334.158 726.72 331.958C726.72 329.738 727.23 327.788 728.26 326.128C729.28 324.468 730.67 323.178 732.42 322.248C734.17 321.318 736.15 320.858 738.38 320.858C740.34 320.858 742.14 321.258 743.75 322.048C745.37 322.848 746.66 324.068 747.63 325.708C748.6 327.358 749.08 329.438 749.08 331.948C749.08 334.428 748.6 336.498 747.63 338.148C746.66 339.798 745.37 341.028 743.75 341.858C742.13 342.688 740.34 343.098 738.38 343.098ZM738.9 352.718C736.79 352.718 734.75 352.418 732.77 351.828C730.79 351.238 729.18 350.388 727.94 349.298L729.93 346.088C731 347.018 732.31 347.738 733.87 348.278C735.43 348.808 737.06 349.078 738.77 349.078C741.49 349.078 743.48 348.438 744.75 347.168C746.02 345.898 746.66 343.958 746.66 341.358V336.508L747.09 331.958L746.87 327.368V321.088H750.81V340.938C750.81 344.978 749.8 347.958 747.78 349.858C745.76 351.768 742.8 352.718 738.9 352.718ZM738.86 339.458C740.39 339.458 741.75 339.138 742.93 338.508C744.11 337.868 745.05 336.988 745.72 335.868C746.4 334.738 746.74 333.438 746.74 331.968C746.74 330.498 746.4 329.198 745.72 328.068C745.04 326.938 744.11 326.068 742.93 325.448C741.75 324.828 740.39 324.518 738.86 324.518C737.33 324.518 735.96 324.828 734.76 325.448C733.56 326.068 732.62 326.938 731.95 328.068C731.27 329.198 730.93 330.498 730.93 331.968C730.93 333.438 731.27 334.738 731.95 335.868C732.63 336.998 733.57 337.878 734.76 338.508C735.96 339.148 737.32 339.458 738.86 339.458Z" fill="#FF445D"/>
<path d="M764.03 350.468L766.2 341.718L766.76 344.228C765.92 344.228 765.22 343.968 764.66 343.448C764.1 342.928 763.82 342.218 763.82 341.318C763.82 340.458 764.1 339.748 764.66 339.198C765.22 338.648 765.91 338.378 766.72 338.378C767.56 338.378 768.24 338.658 768.76 339.228C769.28 339.788 769.54 340.488 769.54 341.328C769.54 341.618 769.52 341.898 769.47 342.178C769.43 342.458 769.35 342.768 769.26 343.128C769.16 343.488 769.01 343.928 768.8 344.448L766.76 350.468H764.03Z" fill="#FF445D"/>
<path d="M805.97 344.058H801.64V313.728H805.97V344.058ZM823.78 330.538H805.54V326.768H823.78V330.538ZM823.39 313.728H827.72V344.058H823.39V313.728Z" fill="#FF445D"/>
<path d="M849.87 344.318C848.17 344.318 846.67 344.028 845.39 343.458C844.1 342.878 843.12 342.078 842.42 341.048C841.73 340.028 841.38 338.858 841.38 337.558C841.38 336.318 841.68 335.188 842.27 334.178C842.86 333.168 843.83 332.358 845.17 331.748C846.51 331.138 848.33 330.838 850.61 330.838H857.89V333.828H850.78C848.7 333.828 847.3 334.178 846.58 334.868C845.86 335.558 845.49 336.398 845.49 337.378C845.49 338.508 845.94 339.408 846.83 340.088C847.72 340.768 848.97 341.108 850.56 341.108C852.12 341.108 853.48 340.758 854.65 340.068C855.82 339.378 856.67 338.368 857.18 337.038L858.01 339.898C857.46 341.258 856.49 342.328 855.11 343.128C853.73 343.918 851.98 344.318 849.87 344.318ZM857.41 344.058V339.208L857.19 338.298V330.018C857.19 328.258 856.68 326.888 855.65 325.928C854.63 324.958 853.09 324.478 851.04 324.478C849.68 324.478 848.35 324.698 847.05 325.148C845.75 325.598 844.65 326.198 843.76 326.948L842.03 323.828C843.21 322.878 844.64 322.148 846.3 321.638C847.96 321.128 849.7 320.878 851.52 320.878C854.67 320.878 857.09 321.648 858.8 323.178C860.5 324.708 861.36 327.048 861.36 330.198V344.068H857.41V344.058Z" fill="#FF445D"/>
<path d="M876 344.058V321.088H879.99V327.328L879.6 325.768C880.23 324.178 881.3 322.968 882.81 322.128C884.32 321.288 886.16 320.868 888.36 320.868V324.898C888.18 324.868 888.02 324.858 887.86 324.858C887.7 324.858 887.55 324.858 887.41 324.858C885.18 324.858 883.42 325.518 882.12 326.848C880.82 328.178 880.17 330.098 880.17 332.608V344.048H876V344.058Z" fill="#FF445D"/>
<path d="M929.12 320.878C930.97 320.878 932.6 321.238 934.02 321.958C935.43 322.678 936.54 323.778 937.33 325.248C938.12 326.728 938.52 328.588 938.52 330.838V344.058H934.36V331.318C934.36 329.098 933.84 327.418 932.8 326.288C931.76 325.158 930.3 324.598 928.42 324.598C927.03 324.598 925.82 324.888 924.78 325.468C923.74 326.048 922.94 326.898 922.37 328.028C921.81 329.148 921.53 330.558 921.53 332.228V344.058H917.37V331.318C917.37 329.098 916.86 327.418 915.83 326.288C914.8 325.158 913.34 324.598 911.43 324.598C910.07 324.598 908.87 324.888 907.83 325.468C906.79 326.048 905.98 326.898 905.4 328.028C904.82 329.148 904.54 330.558 904.54 332.228V344.058H900.38V321.088H904.37V327.198L903.72 325.638C904.44 324.138 905.55 322.968 907.06 322.128C908.56 321.288 910.31 320.868 912.3 320.868C914.5 320.868 916.39 321.408 917.98 322.488C919.57 323.568 920.61 325.208 921.1 327.408L919.41 326.718C920.1 324.958 921.32 323.538 923.05 322.468C924.79 321.408 926.81 320.878 929.12 320.878Z" fill="#FF445D"/>
<path d="M962.97 344.318C960.66 344.318 958.61 343.808 956.82 342.808C955.03 341.798 953.61 340.398 952.57 338.628C951.53 336.848 951.01 334.838 951.01 332.588C951.01 330.308 951.53 328.278 952.57 326.518C953.61 324.758 955.02 323.378 956.82 322.378C958.61 321.378 960.66 320.888 962.97 320.888C965.25 320.888 967.29 321.388 969.1 322.378C970.91 323.368 972.32 324.748 973.35 326.498C974.38 328.248 974.89 330.278 974.89 332.588C974.89 334.868 974.38 336.888 973.35 338.648C972.33 340.408 970.91 341.798 969.1 342.808C967.29 343.808 965.25 344.318 962.97 344.318ZM962.97 340.678C964.44 340.678 965.76 340.348 966.93 339.678C968.1 339.018 969.02 338.068 969.68 336.838C970.35 335.608 970.68 334.188 970.68 332.568C970.68 330.918 970.35 329.498 969.68 328.298C969.02 327.098 968.1 326.168 966.93 325.508C965.76 324.838 964.44 324.508 962.97 324.508C961.5 324.508 960.18 324.838 959.03 325.508C957.87 326.168 956.95 327.108 956.26 328.298C955.57 329.498 955.22 330.918 955.22 332.568C955.22 334.188 955.57 335.608 956.26 336.838C956.95 338.068 957.88 339.018 959.03 339.678C960.18 340.348 961.49 340.678 962.97 340.678Z" fill="#FF445D"/>
<path d="M999.84 320.878C1001.72 320.878 1003.37 321.238 1004.8 321.958C1006.23 322.678 1007.35 323.778 1008.16 325.248C1008.97 326.728 1009.37 328.588 1009.37 330.838V344.058H1005.21V331.318C1005.21 329.098 1004.67 327.418 1003.59 326.288C1002.5 325.158 1000.98 324.598 999.02 324.598C997.55 324.598 996.26 324.888 995.16 325.468C994.06 326.048 993.22 326.898 992.63 328.028C992.04 329.148 991.74 330.558 991.74 332.228V344.058H987.58V321.088H991.57V327.288L990.92 325.638C991.67 324.138 992.83 322.968 994.38 322.128C995.94 321.288 997.76 320.878 999.84 320.878Z" fill="#FF445D"/>
<path d="M1026.1 316.668C1025.29 316.668 1024.62 316.408 1024.08 315.888C1023.55 315.368 1023.28 314.728 1023.28 313.978C1023.28 313.198 1023.55 312.548 1024.08 312.028C1024.61 311.508 1025.29 311.248 1026.1 311.248C1026.91 311.248 1027.58 311.498 1028.12 312.008C1028.65 312.518 1028.92 313.138 1028.92 313.898C1028.92 314.678 1028.66 315.338 1028.14 315.868C1027.62 316.398 1026.94 316.668 1026.1 316.668ZM1024.02 344.058V321.088H1028.18V344.058H1024.02Z" fill="#FF445D"/>
<path d="M1040.83 344.058V341.368L1055.56 323.078L1056.38 324.508H1041.08V321.088H1059.71V323.818L1044.98 342.058L1044.03 340.628H1060.06V344.048H1040.83V344.058Z" fill="#FF445D"/>
<path d="M1082.43 344.318C1079.97 344.318 1077.82 343.808 1075.95 342.808C1074.09 341.798 1072.64 340.408 1071.62 338.648C1070.6 336.888 1070.08 334.868 1070.08 332.588C1070.08 330.308 1070.58 328.278 1071.58 326.518C1072.58 324.758 1073.95 323.378 1075.7 322.378C1077.45 321.378 1079.42 320.888 1081.61 320.888C1083.84 320.888 1085.8 321.378 1087.5 322.358C1089.2 323.338 1090.54 324.718 1091.51 326.498C1092.48 328.278 1092.96 330.348 1092.96 332.718C1092.96 332.888 1092.95 333.098 1092.94 333.328C1092.92 333.558 1092.9 333.778 1092.87 333.978H1073.33V330.988H1090.71L1089.02 332.028C1089.05 330.558 1088.74 329.238 1088.11 328.088C1087.48 326.928 1086.6 326.028 1085.49 325.378C1084.38 324.728 1083.08 324.408 1081.61 324.408C1080.17 324.408 1078.88 324.728 1077.75 325.378C1076.62 326.028 1075.74 326.938 1075.11 328.108C1074.48 329.278 1074.16 330.618 1074.16 332.118V332.808C1074.16 334.338 1074.51 335.708 1075.22 336.908C1075.93 338.108 1076.92 339.038 1078.19 339.698C1079.46 340.368 1080.92 340.698 1082.57 340.698C1083.93 340.698 1085.16 340.468 1086.28 340.008C1087.39 339.548 1088.37 338.848 1089.2 337.928L1091.5 340.618C1090.46 341.828 1089.17 342.758 1087.62 343.388C1086.06 343.998 1084.34 344.318 1082.43 344.318Z" fill="#FF445D"/>
<path d="M1115.15 344.318C1112.93 344.318 1110.94 343.828 1109.19 342.848C1107.44 341.868 1106.06 340.498 1105.05 338.728C1104.04 336.968 1103.53 334.918 1103.53 332.578C1103.53 330.238 1104.04 328.198 1105.05 326.448C1106.06 324.698 1107.44 323.338 1109.19 322.358C1110.94 321.378 1112.92 320.888 1115.15 320.888C1117.09 320.888 1118.83 321.318 1120.39 322.188C1121.95 323.048 1123.2 324.348 1124.14 326.088C1125.08 327.818 1125.55 329.988 1125.55 332.588C1125.55 335.188 1125.1 337.348 1124.19 339.088C1123.28 340.818 1122.04 342.128 1120.48 343.008C1118.92 343.878 1117.14 344.318 1115.15 344.318ZM1115.5 340.678C1116.94 340.678 1118.25 340.348 1119.42 339.678C1120.59 339.018 1121.51 338.068 1122.19 336.838C1122.87 335.608 1123.21 334.188 1123.21 332.568C1123.21 330.918 1122.87 329.498 1122.19 328.298C1121.51 327.098 1120.59 326.168 1119.42 325.508C1118.25 324.838 1116.94 324.508 1115.5 324.508C1114.03 324.508 1112.71 324.838 1111.56 325.508C1110.4 326.168 1109.48 327.108 1108.79 328.298C1108.1 329.498 1107.75 330.918 1107.75 332.568C1107.75 334.188 1108.1 335.608 1108.79 336.838C1109.48 338.068 1110.41 339.018 1111.56 339.678C1112.71 340.348 1114.02 340.678 1115.5 340.678ZM1123.34 344.058V337.858L1123.6 332.528L1123.17 327.198V311.898H1127.33V344.048H1123.34V344.058Z" fill="#FF445D"/>
<path d="M1143.14 344.318C1142.33 344.318 1141.64 344.038 1141.06 343.478C1140.48 342.918 1140.2 342.198 1140.2 341.328C1140.2 340.468 1140.49 339.758 1141.06 339.208C1141.64 338.658 1142.33 338.388 1143.14 338.388C1143.92 338.388 1144.59 338.668 1145.16 339.208C1145.72 339.758 1146 340.468 1146 341.328C1146 342.198 1145.72 342.908 1145.16 343.478C1144.59 344.038 1143.92 344.318 1143.14 344.318Z" fill="#FF445D"/>
<path d="M301.09 128.918C301.09 127.668 301.5 126.668 302.31 125.928C303.12 125.178 304.15 124.808 305.39 124.808H403.73C404.85 124.808 405.86 125.148 406.77 125.838C407.67 126.518 408.19 127.548 408.31 128.918V145.278C408.31 146.528 407.92 147.618 407.14 148.548C406.36 149.478 405.22 149.948 403.73 149.948H368.21V259.318C368.21 260.438 367.82 261.438 367.04 262.308C366.26 263.178 365.19 263.618 363.82 263.618H345.4C344.28 263.618 343.26 263.218 342.36 262.398C341.46 261.588 341.01 260.558 341.01 259.318V149.948H305.39C304.14 149.948 303.11 149.558 302.31 148.778C301.5 147.998 301.09 146.828 301.09 145.268V128.918Z" fill="#3C9EFF"/>
<path d="M428.12 109.208C428.12 105.458 429.96 103.578 433.64 103.578H449.35C451.09 103.578 452.5 104.048 453.56 104.988C454.62 105.928 455.15 107.338 455.15 109.208V123.188C455.15 124.628 454.65 125.988 453.66 127.268C452.66 128.548 451.26 129.188 449.45 129.188H433.75C430.01 129.188 428.14 127.188 428.14 123.188V109.208H428.12ZM428.12 150.598C428.12 148.978 428.59 147.618 429.52 146.528C430.46 145.438 431.83 144.888 433.63 144.888H449.15C449.84 144.888 450.54 145.028 451.25 145.308C451.97 145.588 452.61 145.998 453.17 146.528C453.73 147.058 454.2 147.668 454.57 148.348C454.94 149.028 455.13 149.778 455.13 150.588V257.998C455.13 261.738 453.17 263.608 449.24 263.608H433.72C429.98 263.608 428.11 261.738 428.11 257.998V150.598H428.12Z" fill="#3C9EFF"/>
<path d="M488.09 146.068C489.68 145.288 491.66 144.898 494.03 144.898H503.47C505.28 144.898 506.62 145.488 507.49 146.678C508.36 147.868 508.95 149.178 509.27 150.618L510.3 159.628C511.73 157.498 513.38 155.448 515.25 153.478C517.12 151.508 519.35 149.768 521.93 148.268C524.51 146.768 527.54 145.558 531 144.658C534.46 143.748 538.49 143.298 543.1 143.298C547.46 143.298 551.42 143.718 554.97 144.568C558.52 145.418 561.73 146.668 564.6 148.318C567.46 149.978 570.05 152.008 572.36 154.418C574.66 156.828 576.75 159.598 578.62 162.718C580.12 159.778 582.14 157.088 584.7 154.648C587.25 152.208 590.2 150.128 593.53 148.408C596.86 146.688 600.53 145.358 604.51 144.418C608.5 143.478 612.64 143.008 616.94 143.008C624.29 143.008 630.76 144.348 636.34 147.028C641.92 149.708 646.58 153.388 650.32 158.058C654.06 162.728 656.88 168.188 658.78 174.418C660.68 180.648 661.63 187.318 661.63 194.428V256.778C661.63 259.018 661.1 260.718 660.04 261.868C658.98 263.018 657.45 263.598 655.46 263.598H641.25C638.76 263.598 637.09 263.128 636.25 262.198C635.41 261.268 634.99 259.618 634.99 257.248V194.498C634.99 191.198 634.52 187.988 633.59 184.878C632.65 181.768 631.21 179.008 629.24 176.618C627.28 174.218 624.81 172.288 621.86 170.828C618.9 169.368 615.36 168.638 611.25 168.638C607.82 168.638 604.64 169.248 601.71 170.458C598.78 171.678 596.26 173.418 594.14 175.688C592.02 177.958 590.36 180.698 589.14 183.908C587.92 187.118 587.32 190.678 587.32 194.598V256.888C587.32 261.368 585.29 263.608 581.24 263.608H566.94C564.45 263.608 562.79 263.138 561.99 262.208C561.18 261.278 560.77 259.628 560.77 257.258V194.598C560.77 191.358 560.32 188.198 559.42 185.118C558.52 182.038 557.11 179.278 555.21 176.858C553.31 174.428 550.86 172.468 547.87 170.978C544.88 169.488 541.33 168.738 537.21 168.738C534.34 168.738 531.48 169.288 528.61 170.368C525.74 171.458 523.14 173.028 520.8 175.088C518.46 177.138 516.55 179.668 515.05 182.648C513.56 185.638 512.77 189.028 512.71 192.828V258.108C512.71 259.728 512.18 261.048 511.12 262.078C510.06 263.108 508.72 263.618 507.1 263.618H491.68C489.62 263.618 488.11 263.138 487.15 262.168C486.18 261.198 485.7 259.818 485.7 258.008V150.418C485.71 148.298 486.5 146.848 488.09 146.068Z" fill="#3C9EFF"/>
<path d="M689.49 145.458C690.3 145.088 691.13 144.848 691.97 144.758C692.81 144.668 693.64 144.618 694.45 144.618H703.89C705.76 144.618 707.08 145.148 707.86 146.208C708.64 147.268 709.18 148.608 709.5 150.228L711.46 161.628C713.64 159.138 715.96 156.768 718.42 154.528C720.88 152.278 723.61 150.288 726.6 148.548C729.59 146.798 732.89 145.418 736.51 144.388C740.12 143.358 744.17 142.848 748.66 142.848C754.33 142.848 759.74 143.578 764.88 145.048C770.02 146.508 774.82 148.568 779.28 151.218C783.73 153.868 787.77 157.048 791.39 160.748C795 164.458 798.1 168.588 800.69 173.138C803.28 177.688 805.27 182.578 806.67 187.818C808.07 193.058 808.77 198.508 808.77 204.178C808.77 209.848 808.07 215.298 806.67 220.538C805.27 225.778 803.27 230.668 800.69 235.218C798.1 239.768 795 243.908 791.39 247.648C787.77 251.388 783.74 254.578 779.28 257.228C774.82 259.878 770.01 261.938 764.84 263.398C759.67 264.858 754.28 265.598 748.67 265.598C744.62 265.598 740.9 265.158 737.5 264.288C734.1 263.418 730.96 262.218 728.06 260.688C725.16 259.158 722.48 257.388 720.02 255.358C717.56 253.338 715.24 251.168 713.06 248.858V294.378C713.06 295.878 712.59 297.148 711.66 298.208C710.73 299.268 709.32 299.798 707.45 299.798H691.93C690.62 299.798 689.33 299.318 688.05 298.348C686.77 297.378 686.13 296.058 686.13 294.378V150.128C686.13 148.818 686.42 147.788 687.02 147.048C687.6 146.298 688.43 145.768 689.49 145.458ZM782.12 204.168C782.12 199.248 781.23 194.558 779.46 190.098C777.68 185.648 775.25 181.748 772.17 178.418C769.09 175.088 765.42 172.438 761.19 170.468C756.95 168.508 752.37 167.518 747.45 167.518C742.53 167.518 737.9 168.488 733.57 170.418C729.24 172.348 725.44 174.948 722.17 178.228C718.9 181.498 716.28 185.318 714.32 189.678C712.36 194.038 711.34 198.648 711.28 203.508V204.158C711.28 209.148 712.23 213.878 714.13 218.368C716.03 222.858 718.62 226.778 721.89 230.148C725.16 233.518 728.99 236.198 733.39 238.188C737.78 240.188 742.47 241.178 747.46 241.178C752.38 241.178 756.96 240.178 761.2 238.188C765.44 236.198 769.1 233.518 772.18 230.148C775.26 226.788 777.7 222.858 779.47 218.368C781.24 213.888 782.12 209.148 782.12 204.168Z" fill="#3C9EFF"/>
<path d="M949.26 258.098C949.26 259.218 949.03 260.138 948.56 260.858C948.09 261.578 947.48 262.138 946.74 262.538C945.99 262.948 945.13 263.228 944.17 263.378C943.2 263.538 942.19 263.608 941.13 263.608H929.45C927.45 263.608 926.07 263.078 925.29 262.018C924.51 260.958 923.93 259.618 923.56 257.998L923 250.048C920.82 252.228 918.4 254.268 915.75 256.168C913.1 258.068 910.25 259.718 907.2 261.118C904.15 262.518 900.91 263.608 897.48 264.388C894.05 265.168 890.53 265.558 886.92 265.558C881.31 265.558 875.9 264.828 870.7 263.358C865.5 261.898 860.62 259.838 856.07 257.188C851.52 254.538 847.39 251.348 843.69 247.608C839.98 243.868 836.8 239.728 834.15 235.178C831.5 230.628 829.44 225.738 827.98 220.498C826.52 215.268 825.78 209.808 825.78 204.138C825.78 198.468 826.51 193.018 827.98 187.778C829.44 182.548 831.5 177.648 834.15 173.098C836.8 168.548 839.98 164.418 843.69 160.708C847.4 156.998 851.52 153.828 856.07 151.178C860.62 148.528 865.5 146.468 870.7 145.008C875.9 143.548 881.31 142.808 886.92 142.808C890.9 142.808 894.71 143.228 898.32 144.068C901.94 144.908 905.32 146.098 908.46 147.618C911.6 149.148 914.52 150.988 917.2 153.138C919.88 155.288 922.31 157.638 924.49 160.198L925.8 150.198C926.11 149.078 926.41 148.158 926.69 147.438C926.97 146.718 927.31 146.148 927.72 145.708C928.12 145.278 928.64 144.978 929.26 144.818C929.88 144.668 930.66 144.588 931.6 144.588H940.95C941.95 144.588 942.94 144.678 943.94 144.868C944.94 145.058 945.84 145.348 946.65 145.758C947.46 146.168 948.1 146.728 948.57 147.438C949.04 148.158 949.27 149.048 949.27 150.098V258.098H949.26ZM852.05 204.168C852.05 209.158 852.92 213.878 854.67 218.328C856.41 222.788 858.84 226.698 861.96 230.058C865.07 233.418 868.74 236.088 872.94 238.048C877.15 240.008 881.74 240.988 886.73 240.988C891.78 240.988 896.5 240.008 900.89 238.048C905.28 236.088 909.1 233.418 912.34 230.058C915.58 226.688 918.14 222.778 920 218.328C921.87 213.878 922.8 209.148 922.8 204.168C922.8 199.248 921.86 194.558 920 190.098C918.13 185.648 915.57 181.728 912.34 178.368C909.1 175.008 905.28 172.328 900.89 170.328C896.5 168.338 891.78 167.338 886.73 167.338C881.75 167.338 877.15 168.338 872.94 170.328C868.74 172.328 865.07 175.008 861.96 178.368C858.84 181.738 856.41 185.648 854.67 190.098C852.92 194.548 852.05 199.238 852.05 204.168Z" fill="#3C9EFF"/>
<path d="M974.87 147.608C975.62 146.608 976.33 145.988 977.02 145.738C977.52 145.238 978.27 144.978 979.27 144.948C980.27 144.918 981.2 144.898 982.07 144.898H991.51C993.32 144.898 994.65 145.488 995.53 146.678C996.4 147.858 996.99 149.168 997.31 150.608L998.34 160.518C999.77 158.398 1001.53 156.308 1003.62 154.258C1005.71 152.198 1008.18 150.368 1011.05 148.738C1013.91 147.118 1017.19 145.808 1020.87 144.808C1024.55 143.808 1028.69 143.308 1033.3 143.308C1040.65 143.308 1047.19 144.628 1052.93 147.278C1058.66 149.928 1063.49 153.558 1067.42 158.168C1071.35 162.778 1074.32 168.198 1076.35 174.428C1078.38 180.658 1079.39 187.358 1079.39 194.528V256.878C1079.39 259.118 1078.86 260.808 1077.8 261.928C1076.74 263.048 1075.22 263.608 1073.22 263.608H1059C1056.51 263.608 1054.84 263.138 1054 262.208C1053.16 261.268 1052.74 259.628 1052.74 257.258V194.998C1052.74 191.698 1052.18 188.468 1051.06 185.318C1049.94 182.168 1048.31 179.348 1046.15 176.858C1044 174.368 1041.33 172.368 1038.16 170.878C1034.98 169.378 1031.3 168.638 1027.13 168.638C1024.26 168.638 1021.29 169.218 1018.2 170.368C1015.12 171.518 1012.29 173.158 1009.74 175.278C1007.19 177.398 1005.07 179.968 1003.39 182.988C1001.71 186.008 1000.83 189.418 1000.77 193.228V253.798C1000.77 254.978 1000.71 256.168 1000.59 257.348C1000.46 258.528 1000.2 259.588 999.79 260.528C999.38 261.458 998.81 262.208 998.06 262.768C997.31 263.328 996.34 263.608 995.16 263.608H979.73C977.67 263.608 976.16 263.128 975.2 262.158C974.23 261.188 973.75 259.808 973.75 257.998V150.418C973.75 149.538 974.12 148.608 974.87 147.608Z" fill="#3C9EFF"/>
<path d="M1100.88 109.208C1100.88 105.458 1102.72 103.578 1106.4 103.578H1122.1C1123.84 103.578 1125.25 104.048 1126.31 104.988C1127.37 105.928 1127.9 107.338 1127.9 109.208V123.188C1127.9 124.628 1127.4 125.988 1126.41 127.268C1125.41 128.548 1124.01 129.188 1122.2 129.188H1106.49C1102.75 129.188 1100.88 127.188 1100.88 123.188V109.208ZM1100.88 150.598C1100.88 148.978 1101.35 147.618 1102.28 146.528C1103.21 145.438 1104.58 144.888 1106.39 144.888H1121.91C1122.59 144.888 1123.29 145.028 1124.01 145.308C1124.73 145.588 1125.36 145.998 1125.93 146.528C1126.49 147.058 1126.96 147.668 1127.33 148.348C1127.71 149.028 1127.89 149.778 1127.89 150.588V257.998C1127.89 261.738 1125.93 263.608 1122 263.608H1106.48C1102.74 263.608 1100.87 261.738 1100.87 257.998V150.598H1100.88Z" fill="#3C9EFF"/>
<path d="M16.5901 155.738C16.5901 154.698 16.6101 153.768 16.6301 152.898C11.5701 150.568 7.08008 148.008 3.21008 145.108C2.11008 144.278 1.08008 143.408 0.0800781 142.508C0.780078 164.748 4.63008 198.838 23.4301 229.288C32.1701 243.448 43.9601 254.468 56.6001 263.018C50.7401 253.798 43.8201 242.418 36.0101 228.128C19.0701 197.148 16.5901 169.408 16.5901 155.738Z" fill="#FF445D"/>
<path d="M187.47 168.898C172.87 170.698 157.06 171.778 140.49 171.998V290.598C147.34 289.408 159.05 286.928 172.53 282.228C173.36 280.698 174.25 279.148 175.23 277.538C177.74 273.418 180.73 268.918 184.22 263.588C191.2 252.938 200.26 238.958 211.26 218.848C224.16 195.268 227.48 173.908 228.14 161.178C226.02 161.758 223.87 162.318 221.64 162.858C211.31 165.328 199.83 167.368 187.47 168.898Z" fill="#FF445D"/>
<path d="M247.67 154.598C247.67 154.978 247.68 155.338 247.68 155.738C247.68 169.398 245.2 197.148 228.27 228.128C219.77 243.668 212.34 255.758 206.17 265.378C205.76 266.018 205.37 266.608 204.98 267.228C220.07 258.178 234.52 245.898 244.77 229.288C263.55 198.838 267.41 164.768 268.11 142.528C264.71 145.588 260.7 148.208 256.15 150.638C253.51 152.028 250.67 153.348 247.67 154.598Z" fill="#FF445D"/>
<path d="M36.0601 160.038C36.5901 172.608 39.7101 194.548 53.0001 218.828C61.2501 233.908 68.4101 245.558 74.4101 254.918C80.4201 264.288 85.2701 271.358 89.0301 277.518C89.6301 278.508 90.2001 279.468 90.7501 280.428C102.52 284.888 113.27 287.658 121.13 289.318V171.858C104.12 171.388 87.9701 170.028 73.2401 167.898C59.5001 165.908 46.9901 163.268 36.0601 160.038Z" fill="#FF445D"/>
<path d="M242.06 147.328C241.75 144.878 239.51 143.148 237.06 143.468C234.61 143.778 232.88 146.018 233.2 148.468C233.22 148.638 233.53 151.248 233.53 155.738C233.53 167.718 231.34 193.018 215.85 221.338C204.76 241.608 195.6 255.768 188.6 266.438C185.1 271.778 182.13 276.258 179.7 280.238C177.28 284.228 175.38 287.718 174.1 291.178C170.81 300.068 167.83 311.578 167.83 325.158C167.83 326.648 167.88 328.168 167.95 329.698C161.42 322.918 153.68 317.258 147.53 313.228C141.35 309.178 136.77 306.798 136.67 306.748C136.22 306.518 135.75 306.388 135.28 306.318V165.018C135.28 162.548 133.28 160.548 130.81 160.548C128.34 160.548 126.34 162.548 126.34 165.018V307.188C124.07 308.418 117.27 312.248 109.68 317.818C105.26 321.068 100.58 324.918 96.3501 329.238C96.4101 327.868 96.4401 326.508 96.4401 325.168C96.4401 311.588 93.4601 300.078 90.1701 291.188C88.8901 287.728 86.9901 284.238 84.5701 280.248C80.9301 274.278 76.0701 267.188 70.0201 257.748C63.9701 248.318 56.7401 236.548 48.4201 221.348C32.9301 193.028 30.7401 167.738 30.7401 155.748C30.7401 153.358 30.8301 151.498 30.9101 150.258C30.9501 149.638 30.9901 149.168 31.0201 148.868C31.0301 148.718 31.0501 148.608 31.0501 148.548L31.0601 148.478C31.3701 146.028 29.6401 143.788 27.2001 143.478C24.7501 143.168 22.5101 144.898 22.2001 147.338C22.1801 147.498 21.8001 150.528 21.8001 155.748C21.8001 168.798 24.1701 195.638 40.5701 225.638C51.8101 246.188 61.1501 260.628 68.1901 271.358C71.7101 276.718 74.6401 281.148 76.9301 284.898C79.2201 288.648 80.8301 291.718 81.7801 294.298C84.8101 302.488 87.4901 312.908 87.4901 325.178C87.4901 334.488 85.9501 344.878 81.7701 356.228C80.9201 358.548 82.1001 361.118 84.4201 361.968C86.7401 362.818 89.3101 361.638 90.1601 359.318C91.5301 355.588 92.6201 351.938 93.5101 348.378C95.2401 344.278 98.3701 339.998 102.21 336.008C108.02 329.938 115.34 324.538 121.17 320.728C123.09 319.468 124.83 318.398 126.32 317.508V323.088C126.32 325.558 128.32 327.558 130.79 327.558C133.26 327.558 135.26 325.558 135.26 323.088V316.228C138.33 317.988 143.61 321.188 149.23 325.348C153.5 328.508 157.96 332.228 161.75 336.208C165.55 340.188 168.64 344.448 170.33 348.518C170.5 348.938 170.75 349.298 171.03 349.638C171.86 352.808 172.86 356.028 174.07 359.328C174.92 361.648 177.49 362.828 179.81 361.978C182.13 361.128 183.31 358.558 182.46 356.238C178.28 344.888 176.74 334.498 176.74 325.188C176.74 312.928 179.43 302.498 182.45 294.308C183.4 291.738 185.02 288.658 187.3 284.908C190.72 279.278 195.62 272.138 201.74 262.588C207.87 253.038 215.23 241.068 223.66 225.648C240.06 195.648 242.43 168.808 242.43 155.758C242.46 150.518 242.08 147.488 242.06 147.328Z" fill="#3C9EFF"/>
<path d="M202.46 89.5277L191.49 99.9577C191.42 104.928 189.43 109.918 185.53 113.618L173.01 125.528C169.29 129.068 164.46 130.848 159.7 130.848C154.61 130.858 149.48 128.828 145.7 124.838C142.16 121.118 140.37 116.288 140.38 111.528C140.37 106.438 142.4 101.308 146.39 97.5277L158.91 85.6178C159.24 85.3078 159.62 85.0778 159.97 84.7878C153.2 84.3978 146.26 84.1677 139.17 84.0877C138.78 85.0677 138.32 86.0377 137.76 86.9577C134.12 92.9177 127.75 96.2378 121.25 96.2278C117.83 96.2278 114.33 95.3078 111.21 93.4078L98.2101 85.4778C41.5701 90.0678 6.10352e-05 105.218 6.10352e-05 123.208C6.10352e-05 130.418 6.68006 137.168 18.3101 142.968C18.8401 142.068 19.5001 141.268 20.2701 140.598C21.9801 139.098 24.2301 138.208 26.6401 138.208C27.0501 138.208 27.4701 138.238 27.8801 138.288C30.3101 138.598 32.4501 139.808 33.9401 141.518C35.4401 143.228 36.3301 145.478 36.3301 147.888C36.3301 148.248 36.3001 148.618 36.2601 148.978H36.2701L36.2601 149.068L36.2501 149.128L36.2201 149.368C36.2101 149.508 36.1901 149.708 36.1701 149.948C57.9601 156.748 87.9501 161.278 121.55 162.188C122.02 160.648 122.86 159.258 123.97 158.158C125.71 156.418 128.16 155.318 130.82 155.318C133.48 155.318 135.93 156.408 137.67 158.158C138.8 159.288 139.66 160.718 140.12 162.318C174.39 161.878 205.31 157.678 228.19 151.098C228.15 150.398 228.1 149.858 228.07 149.528C228.04 149.238 228.03 149.098 228.03 149.098L228.01 148.938C228.01 148.888 228.01 148.838 228.01 148.788C227.98 148.488 227.95 148.178 227.95 147.888C227.95 145.478 228.85 143.228 230.34 141.518C231.83 139.808 233.97 138.598 236.39 138.288C236.39 138.288 236.39 138.288 236.38 138.288H236.4H236.39C236.82 138.228 237.24 138.208 237.64 138.208C240.05 138.208 242.3 139.108 244.01 140.598C245.19 141.618 246.12 142.958 246.69 144.478C260.29 138.358 268.19 131.048 268.19 123.208C268.18 108.878 241.8 96.3477 202.46 89.5277Z" fill="#3C9EFF"/>
<path d="M261.64 14.5877C258.7 11.4977 253.81 11.3677 250.71 14.3077L174.92 86.3777C170.74 85.5277 166.23 86.6477 162.9 89.8077L150.38 101.718C144.97 106.868 144.75 115.428 149.9 120.838C155.05 126.248 163.61 126.468 169.02 121.318L181.54 109.408C184.87 106.248 186.21 101.798 185.57 97.5778L261.36 25.5077C264.45 22.5777 264.58 17.6877 261.64 14.5877Z" fill="#FF445D"/>
<path d="M1.13008 3.70775C3.35008 0.06775 8.11008 -1.09225 11.7501 1.12775L101.06 55.5477C104.97 53.8377 109.62 53.9777 113.54 56.3677L128.3 65.3577C134.68 69.2478 136.7 77.5677 132.81 83.9477C128.92 90.3277 120.6 92.3477 114.22 88.4577L99.4601 79.4678C95.5401 77.0778 93.2901 73.0078 93.0201 68.7578L3.71008 14.3278C0.0600834 12.1078 -1.08992 7.34775 1.13008 3.70775Z" fill="#FF445D"/>
</g>
<defs>
<clipPath id="clip0_4_3">
<rect width="1146" height="362.23" fill="white"/>
</clipPath>
</defs>
</svg>
